<?xml version="1.0" encoding="utf-8"?>
<!-- Generator: Adobe Illustrator 21.0.0, SVG Export Plug-In . SVG Version: 6.00 Build 0)  -->
<svg version="1.1" id="Layer_1" xmlns="http://www.w3.org/2000/svg" xmlns:xlink="http://www.w3.org/1999/xlink" x="0px" y="0px"
	 viewBox="0 0 269.9 47" style="enable-background:new 0 0 269.9 47;" xml:space="preserve">
<style type="text/css">
	.st0{fill:#414042;}
	.st1{fill:#EAE1D7;}
</style>
<g>
	<path class="st0" d="M9.2,34.2c-0.3,0-0.5-0.2-0.5-0.5V7.4c0-0.3,0.2-0.5,0.5-0.5h5.2c0.3,0,0.5,0.2,0.5,0.5v21.2h10.6
		c0.3,0,0.5,0.2,0.5,0.5v4.6c0,0.3-0.2,0.5-0.5,0.5H9.2z"/>
	<path class="st1" d="M14.3,7.4v21.7h11.1v4.6H9.2V7.4H14.3 M14.3,6.4H9.2c-0.6,0-1,0.4-1,1v26.2c0,0.6,0.4,1,1,1h16.3
		c0.6,0,1-0.4,1-1v-4.6c0-0.6-0.4-1-1-1H15.3V7.4C15.3,6.9,14.9,6.4,14.3,6.4L14.3,6.4z"/>
</g>
<g>
	<path class="st0" d="M35.6,34.7c-2.4,0-4.2-0.6-5.6-1.9c-1.3-1.3-2-3.1-2-5.3c0-2.5,0.8-4.3,2.4-5.5c1.6-1.2,4-1.7,7.2-1.7h3.1
		v-0.4c0-0.7-0.2-1.2-0.7-1.5c-0.5-0.4-1.3-0.5-2.4-0.5c-1.2,0-2.3,0.2-3.4,0.4c-1.1,0.3-2.3,0.8-3.5,1.4c-0.1,0-0.2,0.1-0.2,0.1
		c-0.1,0-0.2,0-0.3-0.1c-0.2-0.1-0.2-0.3-0.2-0.4v-4.4c0-0.2,0.1-0.4,0.3-0.5c1.2-0.5,2.4-0.8,3.6-1.1c1.2-0.2,2.5-0.3,3.8-0.3
		c3.3,0,5.7,0.7,7.1,2.1c1.4,1.4,2.1,3.8,2.1,7.3v11.2c0,0.3-0.2,0.5-0.5,0.5h-5.1c-0.3,0-0.5-0.2-0.5-0.5v-0.9
		c-0.5,0.5-1.1,0.8-1.7,1.1C38,34.4,36.9,34.7,35.6,34.7z M39.2,24.9c-1.8,0-3.1,0.2-3.8,0.7c-0.6,0.4-0.9,1.1-0.9,2.1
		c0,0.8,0.2,1.3,0.6,1.8s1,0.6,1.8,0.6c1.2,0,2.1-0.4,2.8-1.3c0.7-0.9,1-2.2,1-3.9H39.2z"/>
	<path class="st1" d="M37.7,13.5c3.2,0,5.4,0.7,6.7,2c1.3,1.3,1.9,3.6,1.9,7v11.2h-5.1v-2.2c-0.6,0.9-1.4,1.5-2.4,2s-2,0.7-3.2,0.7
		c-2.2,0-4-0.6-5.2-1.8c-1.2-1.2-1.9-2.8-1.9-5c0-2.3,0.7-4,2.2-5.1c1.5-1.1,3.8-1.6,6.9-1.6h3.6v-0.9c0-0.8-0.3-1.5-0.9-1.9
		c-0.6-0.4-1.5-0.6-2.7-0.6c-1.2,0-2.4,0.2-3.6,0.5c-1.2,0.3-2.4,0.8-3.6,1.5v-4.4c1.1-0.5,2.3-0.8,3.5-1
		C35.1,13.6,36.4,13.5,37.7,13.5 M36.9,30.6c1.4,0,2.4-0.5,3.2-1.5c0.8-1,1.1-2.5,1.1-4.3v-0.4h-2.1c-1.9,0-3.3,0.2-4,0.7
		c-0.8,0.5-1.1,1.3-1.1,2.5c0,0.9,0.3,1.6,0.8,2.1C35.3,30.3,36,30.6,36.9,30.6 M37.7,12.5c-1.4,0-2.7,0.1-3.9,0.4
		c-1.2,0.2-2.5,0.6-3.7,1.1c-0.4,0.2-0.6,0.5-0.6,0.9v4.4c0,0.4,0.2,0.7,0.5,0.9c0.2,0.1,0.3,0.1,0.5,0.1c0.2,0,0.3,0,0.5-0.1
		c1.2-0.6,2.3-1.1,3.4-1.4c1.1-0.3,2.2-0.4,3.3-0.4c0.9,0,1.7,0.2,2.1,0.5c0.2,0.1,0.4,0.4,0.5,0.9h-2.6c-3.4,0-5.8,0.6-7.5,1.8
		c-1.8,1.3-2.6,3.3-2.6,5.9c0,2.4,0.7,4.3,2.2,5.7c1.4,1.4,3.4,2,5.9,2c1.3,0,2.5-0.3,3.7-0.8c0.3-0.2,0.7-0.4,1-0.6
		c0.1,0.5,0.5,0.9,1,0.9h5.1c0.6,0,1-0.4,1-1V22.4c0-3.7-0.7-6.2-2.2-7.7C43.6,13.2,41.2,12.5,37.7,12.5L37.7,12.5z M36.9,29.6
		c-0.6,0-1.1-0.2-1.4-0.5c-0.3-0.3-0.5-0.8-0.5-1.4c0-1.1,0.4-1.5,0.7-1.7c0.4-0.3,1.3-0.6,3.5-0.6h1c-0.1,1.3-0.4,2.3-0.9,3.1
		C38.7,29.2,38,29.6,36.9,29.6L36.9,29.6z"/>
</g>
<g>
	<path class="st0" d="M52.7,34.2c-0.3,0-0.5-0.2-0.5-0.5V14c0-0.3,0.2-0.5,0.5-0.5h5.2c0.3,0,0.5,0.2,0.5,0.5v1.3
		c0.4-0.5,1-1,1.6-1.3c1.1-0.7,2.4-1,3.9-1c0.7,0,1.5,0.1,2.2,0.3c0.7,0.2,1.4,0.4,2,0.8c0.2,0.1,0.3,0.3,0.3,0.4v4.9
		c0,0.2-0.1,0.4-0.3,0.5c-0.1,0-0.1,0-0.2,0c-0.1,0-0.2,0-0.3-0.1c-0.5-0.5-1.1-0.8-1.8-1.1c-0.7-0.2-1.5-0.4-2.3-0.4
		c-1,0-1.9,0.2-2.6,0.5c-0.7,0.3-1.3,0.8-1.7,1.5c-0.2,0.4-0.4,0.9-0.5,1.4c-0.1,0.6-0.2,1.5-0.2,2.8v9.1c0,0.3-0.2,0.5-0.5,0.5
		H52.7z"/>
	<path class="st1" d="M63.8,13.5c0.7,0,1.4,0.1,2.1,0.3s1.3,0.4,1.9,0.7v4.9c-0.6-0.5-1.2-0.9-2-1.2c-0.8-0.3-1.6-0.4-2.5-0.4
		c-1.1,0-2,0.2-2.9,0.6c-0.8,0.4-1.4,0.9-1.9,1.7c-0.3,0.4-0.5,1-0.6,1.6c-0.1,0.6-0.2,1.6-0.2,2.9v9.1h-5.2V14h5.2V17
		c0.5-1.1,1.3-2,2.3-2.6C61.2,13.8,62.4,13.5,63.8,13.5 M63.8,12.5c-1.6,0-3,0.4-4.2,1.1c-0.3,0.2-0.6,0.4-0.8,0.6V14
		c0-0.6-0.4-1-1-1h-5.2c-0.6,0-1,0.4-1,1v19.7c0,0.6,0.4,1,1,1h5.2c0.6,0,1-0.4,1-1v-9.1c0-1.2,0.1-2.1,0.2-2.7
		c0.1-0.5,0.2-0.9,0.4-1.3c0.4-0.6,0.8-1,1.5-1.3c0.7-0.3,1.5-0.5,2.4-0.5c0.8,0,1.5,0.1,2.2,0.3c0.6,0.2,1.2,0.5,1.6,1
		c0.2,0.2,0.4,0.3,0.7,0.3c0.1,0,0.3,0,0.4-0.1c0.4-0.2,0.6-0.5,0.6-0.9v-4.9c0-0.4-0.2-0.7-0.5-0.9c-0.7-0.4-1.4-0.6-2.2-0.8
		C65.3,12.6,64.6,12.5,63.8,12.5L63.8,12.5z"/>
</g>
<g>
	<path class="st0" d="M78,34.7c-2.4,0-4.2-0.6-5.6-1.9c-1.3-1.3-2-3.1-2-5.3c0-2.5,0.8-4.3,2.4-5.5c1.6-1.2,4-1.7,7.2-1.7h3.1v-0.4
		c0-0.7-0.2-1.2-0.7-1.5c-0.5-0.4-1.3-0.5-2.4-0.5c-1.2,0-2.3,0.2-3.4,0.4c-1.1,0.3-2.3,0.8-3.5,1.4c-0.1,0-0.2,0.1-0.2,0.1
		c-0.1,0-0.2,0-0.3-0.1c-0.2-0.1-0.2-0.3-0.2-0.4v-4.4c0-0.2,0.1-0.4,0.3-0.5c1.2-0.5,2.4-0.8,3.6-1.1c1.2-0.2,2.5-0.3,3.8-0.3
		c3.3,0,5.7,0.7,7.1,2.1c1.4,1.4,2.1,3.8,2.1,7.3v11.2c0,0.3-0.2,0.5-0.5,0.5h-5.1c-0.3,0-0.5-0.2-0.5-0.5v-0.9
		c-0.5,0.5-1.1,0.8-1.7,1.1C80.4,34.4,79.2,34.7,78,34.7z M81.5,24.9c-1.8,0-3.1,0.2-3.8,0.7c-0.6,0.4-0.9,1.1-0.9,2.1
		c0,0.8,0.2,1.3,0.6,1.8s1,0.6,1.8,0.6c1.2,0,2.1-0.4,2.8-1.3c0.7-0.9,1-2.2,1-3.9H81.5z"/>
	<path class="st1" d="M80,13.5c3.2,0,5.4,0.7,6.7,2c1.3,1.3,1.9,3.6,1.9,7v11.2h-5.1v-2.2c-0.6,0.9-1.4,1.5-2.4,2s-2,0.7-3.2,0.7
		c-2.2,0-4-0.6-5.2-1.8c-1.2-1.2-1.9-2.8-1.9-5c0-2.3,0.7-4,2.2-5.1c1.5-1.1,3.8-1.6,6.9-1.6h3.6v-0.9c0-0.8-0.3-1.5-0.9-1.9
		c-0.6-0.4-1.5-0.6-2.7-0.6c-1.2,0-2.4,0.2-3.6,0.5c-1.2,0.3-2.4,0.8-3.6,1.5v-4.4c1.1-0.5,2.3-0.8,3.5-1
		C77.5,13.6,78.7,13.5,80,13.5 M79.3,30.6c1.4,0,2.4-0.5,3.2-1.5c0.8-1,1.1-2.5,1.1-4.3v-0.4h-2.1c-1.9,0-3.3,0.2-4,0.7
		c-0.8,0.5-1.1,1.3-1.1,2.5c0,0.9,0.3,1.6,0.8,2.1C77.7,30.3,78.4,30.6,79.3,30.6 M80,12.5c-1.4,0-2.7,0.1-3.9,0.4
		c-1.2,0.2-2.5,0.6-3.7,1.1c-0.4,0.2-0.6,0.5-0.6,0.9v4.4c0,0.4,0.2,0.7,0.5,0.9c0.2,0.1,0.3,0.1,0.5,0.1c0.2,0,0.3,0,0.5-0.1
		c1.2-0.6,2.3-1.1,3.4-1.4c1.1-0.3,2.2-0.4,3.3-0.4c0.9,0,1.7,0.2,2.1,0.5c0.2,0.1,0.4,0.4,0.5,0.9H80c-3.4,0-5.8,0.6-7.5,1.8
		c-1.8,1.3-2.6,3.3-2.6,5.9c0,2.4,0.7,4.3,2.2,5.7c1.4,1.4,3.4,2,5.9,2c1.3,0,2.5-0.3,3.7-0.8c0.3-0.2,0.7-0.4,1-0.6
		c0.1,0.5,0.5,0.9,1,0.9h5.1c0.6,0,1-0.4,1-1V22.4c0-3.7-0.7-6.2-2.2-7.7C86,13.2,83.5,12.5,80,12.5L80,12.5z M79.3,29.6
		c-0.6,0-1.1-0.2-1.4-0.5c-0.3-0.3-0.5-0.8-0.5-1.4c0-1.1,0.4-1.5,0.7-1.7c0.4-0.3,1.3-0.6,3.5-0.6h1c-0.1,1.3-0.4,2.3-0.9,3.1
		C81.1,29.2,80.3,29.6,79.3,29.6L79.3,29.6z"/>
</g>
<g>
	<path class="st0" d="M98.6,34.2c-0.2,0-0.4-0.1-0.5-0.3l-6.3-19.7c0-0.2,0-0.3,0.1-0.4c0.1-0.1,0.2-0.2,0.4-0.2h5.2
		c0.2,0,0.4,0.2,0.5,0.4l3.7,13.6l3.7-13.6c0.1-0.2,0.3-0.4,0.5-0.4h5.2c0.2,0,0.3,0.1,0.4,0.2c0.1,0.1,0.1,0.3,0.1,0.4l-6.3,19.7
		c-0.1,0.2-0.3,0.3-0.5,0.3H98.6z"/>
	<path class="st1" d="M111.2,14l-6.3,19.7h-6.3L92.3,14h5.2l4.2,15.4l4.2-15.4H111.2 M111.2,13h-5.2c-0.5,0-0.8,0.3-1,0.7l-3.3,11.8
		l-3.2-11.8c-0.1-0.4-0.5-0.7-1-0.7h-5.2c-0.3,0-0.6,0.2-0.8,0.4c-0.2,0.3-0.2,0.6-0.1,0.9L97.6,34c0.1,0.4,0.5,0.7,1,0.7h6.3
		c0.4,0,0.8-0.3,1-0.7l6.3-19.7c0.1-0.3,0-0.6-0.1-0.9C111.8,13.1,111.5,13,111.2,13L111.2,13z M111.2,15L111.2,15L111.2,15
		L111.2,15z"/>
</g>
<g>
	<path class="st0" d="M124.3,34.7c-3.4,0-6.1-0.9-7.9-2.8c-1.8-1.9-2.8-4.5-2.8-8c0-3.3,0.9-6,2.6-7.9c1.8-2,4.2-3,7.2-3
		c3,0,5.5,0.9,7.2,2.8c1.7,1.8,2.6,4.4,2.6,7.6v2.1c0,0.3-0.2,0.5-0.5,0.5h-12.8c0.1,1.1,0.5,2,1.2,2.6c0.8,0.7,2.1,1,3.7,1
		c1.1,0,2.3-0.2,3.4-0.5c1.1-0.3,2.3-0.9,3.5-1.6c0.1,0,0.2-0.1,0.3-0.1c0.1,0,0.2,0,0.2,0.1c0.2,0.1,0.3,0.3,0.3,0.4v4.7
		c0,0.2-0.1,0.4-0.3,0.5c-1.2,0.5-2.5,0.9-3.7,1.1C127.1,34.5,125.8,34.7,124.3,34.7z M123.6,18c-1.1,0-1.9,0.3-2.5,0.9
		c-0.5,0.5-0.9,1.3-1,2.2l7,0c-0.1-1-0.4-1.7-0.9-2.2C125.6,18.3,124.7,18,123.6,18z"/>
	<path class="st1" d="M123.6,13.5c2.9,0,5.2,0.9,6.8,2.6c1.6,1.7,2.4,4.2,2.4,7.3v2.1h-13.3c0,1.5,0.5,2.7,1.4,3.5
		c0.9,0.8,2.2,1.1,4,1.1c1.2,0,2.3-0.2,3.5-0.5c1.1-0.3,2.3-0.9,3.6-1.6v4.7c-1.2,0.5-2.4,0.9-3.7,1.1c-1.2,0.2-2.6,0.4-3.9,0.4
		c-3.3,0-5.8-0.9-7.5-2.6c-1.7-1.8-2.6-4.3-2.6-7.6c0-3.2,0.8-5.7,2.5-7.6C118.4,14.4,120.7,13.5,123.6,13.5 M119.5,21.6l8.1,0
		c0-1.4-0.4-2.4-1-3.1c-0.7-0.7-1.7-1-3-1c-1.2,0-2.1,0.4-2.8,1.1C120,19.3,119.6,20.3,119.5,21.6 M123.6,12.5
		c-3.2,0-5.7,1.1-7.6,3.1c-1.8,2-2.8,4.8-2.8,8.3c0,3.6,1,6.4,2.9,8.3c1.9,2,4.7,2.9,8.3,2.9c1.4,0,2.8-0.1,4.1-0.4
		c1.3-0.3,2.6-0.6,3.8-1.2c0.4-0.2,0.6-0.5,0.6-0.9V28c0-0.4-0.2-0.7-0.5-0.9c-0.2-0.1-0.3-0.1-0.5-0.1c-0.2,0-0.4,0-0.5,0.1
		c-1.2,0.7-2.3,1.2-3.4,1.5c-1.1,0.3-2.1,0.5-3.2,0.5c-1.5,0-2.7-0.3-3.4-0.9c-0.5-0.4-0.8-1-0.9-1.7h12.2c0.6,0,1-0.4,1-1v-2.1
		c0-3.4-0.9-6.1-2.7-8C129.3,13.5,126.7,12.5,123.6,12.5L123.6,12.5z M120.7,20.6c0.2-0.6,0.4-1,0.8-1.4c0.5-0.5,1.2-0.8,2.1-0.8
		c1,0,1.8,0.2,2.3,0.7c0.3,0.3,0.5,0.8,0.7,1.4L120.7,20.6L120.7,20.6z"/>
</g>
<g>
	<path class="st0" d="M147.9,34.2c-2.6,0-4.5-0.7-5.7-2.1c-1.2-1.4-1.7-3.5-1.7-6.6V10.8h-4.7c-0.3,0-0.5-0.2-0.5-0.5v-4
		c0-0.3,0.2-0.5,0.5-0.5h10.4c0.3,0,0.5,0.2,0.5,0.5v19.1c0,1.4,0.2,2.4,0.6,3c0.4,0.5,1.1,0.8,2,0.8h4.1c0.3,0,0.5,0.2,0.5,0.5v4
		c0,0.3-0.2,0.5-0.5,0.5H147.9z"/>
	<path class="st1" d="M146.2,6.3v19.1c0,1.5,0.2,2.6,0.7,3.3c0.5,0.6,1.3,1,2.4,1h4.1v4h-5.6c-2.4,0-4.2-0.6-5.3-1.9
		c-1.1-1.3-1.6-3.4-1.6-6.3V10.3h-5.2v-4H146.2 M146.2,5.3h-10.4c-0.6,0-1,0.4-1,1v4c0,0.6,0.4,1,1,1h4.2v14.2c0,3.2,0.6,5.5,1.8,7
		c1.3,1.5,3.3,2.3,6,2.3h5.6c0.6,0,1-0.4,1-1v-4c0-0.6-0.4-1-1-1h-4.1c-0.8,0-1.4-0.2-1.6-0.6c-0.2-0.3-0.5-1-0.5-2.7V6.3
		C147.2,5.8,146.7,5.3,146.2,5.3L146.2,5.3z"/>
</g>
<g>
	<path class="st0" d="M163.8,34.2c-0.3,0-0.5-0.2-0.5-0.5v-6.5c0-0.3,0.2-0.5,0.5-0.5h5.9c0.3,0,0.5,0.2,0.5,0.5v6.5
		c0,0.3-0.2,0.5-0.5,0.5H163.8z"/>
	<path class="st1" d="M169.7,27.2v6.5h-5.9v-6.5H169.7 M169.7,26.2h-5.9c-0.6,0-1,0.4-1,1v6.5c0,0.6,0.4,1,1,1h5.9c0.6,0,1-0.4,1-1
		v-6.5C170.7,26.7,170.2,26.2,169.7,26.2L169.7,26.2z"/>
</g>
<g>
	<path class="st0" d="M179.8,34.2c-0.3,0-0.5-0.2-0.5-0.5V7.4c0-0.3,0.2-0.5,0.5-0.5h8.5c3,0,5.3,0.6,6.9,1.8c1.6,1.2,2.4,3,2.4,5.4
		c0,1.8-0.5,3.3-1.4,4.3c-0.5,0.6-1.1,1-1.9,1.3c1.1,0.4,1.9,0.9,2.6,1.7c1.1,1.2,1.6,3,1.6,5.1c0,2.7-0.8,4.7-2.5,5.9
		c-1.6,1.2-4.2,1.8-7.7,1.8H179.8z M188.2,29c1.5,0,2.6-0.2,3.1-0.7c0.5-0.5,0.8-1.3,0.8-2.6c0-1.3-0.3-2.2-0.9-2.7
		c-0.6-0.5-1.6-0.8-3.1-0.8h-2.9V29H188.2z M188.2,17.1c1.2,0,2-0.2,2.5-0.6c0.4-0.4,0.7-1,0.7-1.9c0-0.9-0.2-1.6-0.7-2
		c-0.5-0.4-1.3-0.6-2.5-0.6h-2.9v5.1H188.2z"/>
	<path class="st1" d="M188.2,7.4c2.9,0,5.1,0.6,6.6,1.7c1.5,1.1,2.2,2.8,2.2,5c0,1.7-0.4,3-1.3,4c-0.9,0.9-2.1,1.5-3.8,1.7
		c2,0.2,3.5,0.9,4.5,2c1,1.1,1.5,2.8,1.5,4.8c0,2.5-0.8,4.4-2.3,5.5s-4,1.7-7.4,1.7h-8.5V7.4H188.2 M184.8,17.6h3.4
		c1.3,0,2.2-0.2,2.8-0.7s0.8-1.2,0.8-2.3c0-1.1-0.3-1.9-0.9-2.3s-1.5-0.7-2.8-0.7h-3.4V17.6 M184.8,29.5h3.4c1.7,0,2.8-0.3,3.5-0.8
		s1-1.5,1-2.9c0-1.4-0.3-2.4-1-3.1s-1.8-0.9-3.4-0.9h-3.4V29.5 M188.2,6.4h-8.5c-0.6,0-1,0.4-1,1v26.3c0,0.6,0.4,1,1,1h8.5
		c3.7,0,6.3-0.6,8-1.9c1.8-1.3,2.7-3.5,2.7-6.3c0-2.3-0.6-4.1-1.8-5.5c-0.5-0.6-1.1-1-1.8-1.4c0.4-0.3,0.8-0.6,1.1-0.9
		c1-1.1,1.6-2.7,1.6-4.6c0-2.5-0.9-4.5-2.6-5.8C193.8,7,191.4,6.4,188.2,6.4L188.2,6.4z M185.8,12.5h2.4c1.3,0,1.9,0.3,2.1,0.5
		c0.3,0.3,0.5,0.8,0.5,1.6c0,0.8-0.2,1.3-0.5,1.6c-0.2,0.2-0.8,0.5-2.2,0.5h-2.4V12.5L185.8,12.5z M185.8,22.7h2.4
		c1.3,0,2.3,0.2,2.8,0.7c0.5,0.4,0.7,1.2,0.7,2.3c0,0.7-0.1,1.7-0.6,2.2c-0.3,0.2-1,0.6-2.8,0.6h-2.4V22.7L185.8,22.7z"/>
</g>
<g>
	<path class="st0" d="M212.9,34.2c-2.6,0-4.5-0.7-5.7-2.1c-1.2-1.4-1.7-3.5-1.7-6.6V10.8h-4.7c-0.3,0-0.5-0.2-0.5-0.5v-4
		c0-0.3,0.2-0.5,0.5-0.5h10.4c0.3,0,0.5,0.2,0.5,0.5v19.1c0,1.4,0.2,2.4,0.6,3c0.4,0.5,1.1,0.8,2,0.8h4.1c0.3,0,0.5,0.2,0.5,0.5v4
		c0,0.3-0.2,0.5-0.5,0.5H212.9z"/>
	<path class="st1" d="M211.2,6.3v19.1c0,1.5,0.2,2.6,0.7,3.3c0.5,0.6,1.3,1,2.4,1h4.1v4h-5.6c-2.4,0-4.2-0.6-5.3-1.9
		c-1.1-1.3-1.6-3.4-1.6-6.3V10.3h-5.2v-4H211.2 M211.2,5.3h-10.4c-0.6,0-1,0.4-1,1v4c0,0.6,0.4,1,1,1h4.2v14.2c0,3.2,0.6,5.5,1.8,7
		c1.3,1.5,3.3,2.3,6,2.3h5.6c0.6,0,1-0.4,1-1v-4c0-0.6-0.4-1-1-1h-4.1c-0.8,0-1.4-0.2-1.6-0.6c-0.2-0.3-0.5-1-0.5-2.7V6.3
		C212.2,5.8,211.8,5.3,211.2,5.3L211.2,5.3z"/>
</g>
<g>
	<path class="st0" d="M231.8,34.7c-2.9,0-5.3-1-7-3c-1.7-1.9-2.6-4.6-2.6-7.9c0-3.3,0.9-5.9,2.6-7.9c1.7-2,4.1-3,7-3
		c2.9,0,5.3,1,7,3c1.7,1.9,2.6,4.6,2.6,7.9c0,3.3-0.9,5.9-2.6,7.9C237.1,33.7,234.7,34.7,231.8,34.7z M231.8,18.2
		c-1.1,0-1.9,0.5-2.5,1.4c-0.6,1-1,2.4-1,4.3s0.3,3.3,1,4.3c0.6,0.9,1.4,1.4,2.5,1.4c1.1,0,1.9-0.5,2.5-1.4c0.6-1,1-2.4,1-4.3
		s-0.3-3.3-1-4.3C233.7,18.6,232.8,18.2,231.8,18.2z"/>
	<path class="st1" d="M231.8,13.5c2.8,0,5,0.9,6.7,2.8c1.6,1.9,2.5,4.4,2.5,7.5s-0.8,5.7-2.5,7.5c-1.6,1.9-3.9,2.8-6.7,2.8
		c-2.8,0-5-0.9-6.6-2.8c-1.6-1.9-2.5-4.4-2.5-7.5s0.8-5.7,2.5-7.5C226.8,14.4,229,13.5,231.8,13.5 M231.8,30c1.2,0,2.2-0.5,2.9-1.6
		c0.7-1.1,1.1-2.6,1.1-4.5s-0.4-3.4-1.1-4.5c-0.7-1.1-1.7-1.6-2.9-1.6c-1.2,0-2.2,0.5-2.9,1.6c-0.7,1.1-1.1,2.6-1.1,4.5
		s0.4,3.4,1.1,4.5C229.6,29.4,230.5,30,231.8,30 M231.8,12.5c-3.1,0-5.5,1.1-7.4,3.1c-1.8,2-2.7,4.8-2.7,8.2s0.9,6.2,2.7,8.2
		c1.8,2.1,4.3,3.1,7.4,3.1c3.1,0,5.6-1.1,7.4-3.1c1.8-2,2.7-4.8,2.7-8.2s-0.9-6.2-2.7-8.2C237.3,13.5,234.8,12.5,231.8,12.5
		L231.8,12.5z M231.8,29c-0.9,0-1.5-0.4-2.1-1.2c-0.6-0.9-0.9-2.3-0.9-4s0.3-3.1,0.9-4c0.5-0.8,1.2-1.2,2.1-1.2
		c0.9,0,1.6,0.4,2.1,1.2c0.6,0.9,0.9,2.3,0.9,4s-0.3,3.1-0.9,4C233.3,28.6,232.7,29,231.8,29L231.8,29z"/>
</g>
<g>
	<path class="st0" d="M252.8,41.6c-1.1,0-2.2-0.1-3.3-0.2c-1.1-0.2-2.2-0.4-3.3-0.7c-0.2-0.1-0.4-0.3-0.4-0.5v-4.7
		c0-0.2,0.1-0.3,0.2-0.4c0.1,0,0.2-0.1,0.3-0.1c0.1,0,0.2,0,0.2,0.1c0.9,0.5,1.9,0.9,2.9,1.1c1,0.2,2,0.4,3,0.4
		c1.3,0,2.3-0.3,2.9-0.9c0.6-0.6,0.9-1.5,0.9-2.9v-0.6c-0.4,0.4-0.8,0.7-1.3,1c-0.9,0.5-2,0.7-3.3,0.7c-2.4,0-4.3-1-5.8-2.8
		c-1.4-1.8-2.1-4.3-2.1-7.5c0-3.2,0.7-5.8,2.1-7.7c1.4-2,3.3-2.9,5.7-2.9c1.2,0,2.3,0.3,3.3,0.9c0.5,0.3,0.9,0.7,1.3,1.1V14
		c0-0.3,0.2-0.5,0.5-0.5h5.2c0.3,0,0.5,0.2,0.5,0.5v18.2c0,3.3-0.8,5.7-2.3,7.2C258.6,40.9,256.1,41.6,252.8,41.6z M253.1,18.2
		c-0.9,0-1.6,0.4-2.2,1.3c-0.6,1-0.9,2.3-0.9,4c0,1.7,0.3,3,0.9,4c0.6,0.9,1.3,1.3,2.2,1.3c0.9,0,1.6-0.4,2.2-1.4
		c0.6-1,0.9-2.3,0.9-4c0-1.7-0.3-3-0.9-4C254.7,18.6,254,18.2,253.1,18.2z"/>
	<path class="st1" d="M251.6,13.5c1.1,0,2.1,0.3,3,0.8s1.6,1.3,2.1,2.2V14h5.2v18.2c0,3.2-0.7,5.4-2.1,6.8s-3.7,2.1-6.9,2.1
		c-1.1,0-2.1-0.1-3.2-0.2s-2.1-0.4-3.2-0.7v-4.7c1,0.5,2,0.9,3,1.2c1,0.3,2,0.4,3.1,0.4c1.5,0,2.5-0.3,3.2-1c0.7-0.7,1-1.8,1-3.2
		v-2.1c-0.5,0.9-1.2,1.6-2,2.1s-1.8,0.7-3,0.7c-2.2,0-4-0.9-5.4-2.6c-1.3-1.8-2-4.1-2-7.2c0-3.1,0.7-5.6,2-7.4
		C247.6,14.4,249.4,13.5,251.6,13.5 M253.1,29.3c1.1,0,2-0.5,2.6-1.6s1-2.5,1-4.2c0-1.8-0.3-3.2-1-4.2c-0.7-1.1-1.5-1.6-2.6-1.6
		c-1.1,0-1.9,0.5-2.6,1.6c-0.7,1.1-1,2.5-1,4.2c0,1.8,0.3,3.2,1,4.3C251.1,28.8,252,29.3,253.1,29.3 M251.6,12.5
		c-2.6,0-4.6,1.1-6.1,3.2c-1.4,2-2.2,4.7-2.2,8c0,3.2,0.7,5.8,2.2,7.8c1.5,2,3.6,3,6.2,3c1.4,0,2.5-0.3,3.5-0.8
		c0.2-0.1,0.3-0.2,0.5-0.3c-0.1,0.9-0.3,1.6-0.7,2c-0.5,0.5-1.3,0.7-2.5,0.7c-1,0-1.9-0.1-2.9-0.4c-0.9-0.2-1.8-0.6-2.7-1.1
		c-0.2-0.1-0.3-0.1-0.5-0.1c-0.2,0-0.4,0-0.5,0.1c-0.3,0.2-0.5,0.5-0.5,0.9v4.7c0,0.4,0.3,0.8,0.7,1c1.1,0.3,2.3,0.6,3.4,0.8
		c1.1,0.2,2.2,0.2,3.3,0.2c3.5,0,6-0.8,7.6-2.4c1.6-1.6,2.4-4.1,2.4-7.5V14c0-0.6-0.4-1-1-1h-5.2c-0.5,0-0.9,0.4-1,0.8
		c-0.2-0.1-0.4-0.3-0.6-0.4C254.1,12.8,252.9,12.5,251.6,12.5L251.6,12.5z M253.1,28.3c-0.5,0-1.1-0.1-1.8-1.1
		c-0.6-0.9-0.8-2.1-0.8-3.7c0-1.6,0.3-2.8,0.8-3.7c0.6-1,1.3-1.1,1.8-1.1c0.5,0,1.2,0.1,1.8,1.1c0.6,0.9,0.8,2.1,0.8,3.7
		c0,1.6-0.3,2.8-0.8,3.7C254.2,28.2,253.6,28.3,253.1,28.3L253.1,28.3z"/>
</g>
</svg>
