<?xml version="1.0" encoding="utf-8"?>
<!-- Generator: Adobe Illustrator 21.0.0, SVG Export Plug-In . SVG Version: 6.00 Build 0)  -->
<svg version="1.1" id="Layer_1" xmlns="http://www.w3.org/2000/svg" xmlns:xlink="http://www.w3.org/1999/xlink" x="0px" y="0px"
	 viewBox="0 0 164.8 32.3" style="enable-background:new 0 0 164.8 32.3;" xml:space="preserve">
<style type="text/css">
	.st0{fill:#414042;}
	.st1{fill:#EDE7E2;}
</style>
<g>
	<path class="st0" d="M5.3,24.2C5.1,24.2,5,24,5,23.8V6.3c0-0.2,0.2-0.4,0.4-0.4h3.5c0.2,0,0.4,0.2,0.4,0.4v14.1h7
		c0.2,0,0.4,0.2,0.4,0.4v3c0,0.2-0.2,0.4-0.4,0.4H5.3z"/>
	<path class="st1" d="M8.8,6.3v14.4h7.4v3H5.3V6.3H8.8 M8.8,5.5H5.3c-0.4,0-0.8,0.3-0.8,0.8v17.5c0,0.4,0.3,0.8,0.8,0.8h10.9
		c0.4,0,0.8-0.3,0.8-0.8v-3c0-0.4-0.3-0.8-0.8-0.8H9.5V6.3C9.5,5.9,9.2,5.5,8.8,5.5L8.8,5.5z"/>
</g>
<g>
	<path class="st0" d="M21.8,24.5c-1.6,0-2.8-0.4-3.7-1.3c-0.9-0.9-1.4-2.1-1.4-3.6c0-1.7,0.6-2.9,1.6-3.7c1.1-0.8,2.7-1.2,4.8-1.2h2
		v-0.2c0-0.4-0.1-0.7-0.4-1c-0.3-0.2-0.9-0.4-1.6-0.4c-0.8,0-1.6,0.1-2.3,0.3c-0.7,0.2-1.5,0.5-2.3,1c-0.1,0-0.1,0-0.2,0
		c-0.1,0-0.1,0-0.2-0.1C18,14.4,18,14.3,18,14.2v-2.9c0-0.2,0.1-0.3,0.2-0.3c0.8-0.3,1.6-0.6,2.4-0.7c0.8-0.2,1.7-0.2,2.6-0.2
		c2.2,0,3.8,0.5,4.8,1.4c0.9,0.9,1.4,2.6,1.4,4.9v7.5c0,0.2-0.2,0.4-0.4,0.4h-3.4c-0.2,0-0.4-0.2-0.4-0.4v-0.5
		c-0.3,0.3-0.7,0.5-1.1,0.7C23.4,24.3,22.6,24.5,21.8,24.5z M24.1,18c-1.5,0-2.2,0.2-2.5,0.4c-0.4,0.3-0.6,0.7-0.6,1.4
		c0,0.5,0.1,0.9,0.4,1.2c0.3,0.3,0.7,0.4,1.2,0.4c0.8,0,1.4-0.3,1.8-0.9c0.4-0.6,0.7-1.4,0.7-2.5H24.1z"/>
	<path class="st1" d="M23.1,10.3c2.1,0,3.6,0.4,4.5,1.3c0.9,0.9,1.3,2.4,1.3,4.7v7.5h-3.4v-1.5c-0.4,0.6-0.9,1-1.6,1.3
		s-1.4,0.5-2.1,0.5c-1.5,0-2.7-0.4-3.5-1.2c-0.8-0.8-1.2-1.9-1.2-3.3c0-1.5,0.5-2.7,1.5-3.4c1-0.7,2.5-1.1,4.6-1.1h2.4v-0.6
		c0-0.6-0.2-1-0.6-1.3c-0.4-0.3-1-0.4-1.8-0.4c-0.8,0-1.6,0.1-2.4,0.3c-0.8,0.2-1.6,0.5-2.4,1v-2.9c0.8-0.3,1.5-0.5,2.3-0.7
		C21.4,10.4,22.3,10.3,23.1,10.3 M22.7,21.7c0.9,0,1.6-0.3,2.1-1c0.5-0.7,0.8-1.6,0.8-2.9v-0.2h-1.4c-1.3,0-2.2,0.2-2.7,0.5
		c-0.5,0.3-0.8,0.9-0.8,1.7c0,0.6,0.2,1.1,0.5,1.4C21.6,21.6,22.1,21.7,22.7,21.7 M23.1,9.6c-0.9,0-1.8,0.1-2.6,0.2
		c-0.8,0.2-1.7,0.4-2.5,0.7c-0.3,0.1-0.5,0.4-0.5,0.7v2.9c0,0.3,0.1,0.5,0.4,0.6c0.1,0.1,0.3,0.1,0.4,0.1c0.1,0,0.2,0,0.4-0.1
		c0.8-0.4,1.5-0.7,2.2-0.9c0.7-0.2,1.4-0.3,2.2-0.3c0.6,0,1.1,0.1,1.3,0.3c0.1,0.1,0.2,0.2,0.3,0.5h-1.6c-2.3,0-3.9,0.4-5.1,1.2
		c-1.2,0.9-1.8,2.2-1.8,4c0,1.6,0.5,2.9,1.5,3.8c1,0.9,2.3,1.4,4,1.4c0.9,0,1.7-0.2,2.5-0.5c0.2-0.1,0.4-0.2,0.6-0.3
		c0.1,0.3,0.4,0.5,0.7,0.5h3.4c0.4,0,0.8-0.3,0.8-0.8v-7.5c0-2.5-0.5-4.2-1.5-5.2C27.1,10.1,25.5,9.6,23.1,9.6L23.1,9.6z M22.7,21
		c-0.4,0-0.7-0.1-0.9-0.3c-0.2-0.2-0.3-0.5-0.3-0.9c0-0.7,0.2-0.9,0.4-1.1c0.2-0.1,0.8-0.4,2.3-0.4h0.6c-0.1,0.8-0.3,1.5-0.6,1.9
		C23.8,20.8,23.3,21,22.7,21L22.7,21z"/>
</g>
<g>
	<path class="st0" d="M31.6,24.2c-0.2,0-0.4-0.2-0.4-0.4V10.7c0-0.2,0.2-0.4,0.4-0.4H35c0.2,0,0.4,0.2,0.4,0.4v0.8
		c0.3-0.3,0.6-0.6,1-0.8C37.1,10.2,38,10,39,10c0.5,0,1,0.1,1.5,0.2c0.5,0.1,0.9,0.3,1.4,0.5c0.1,0.1,0.2,0.2,0.2,0.3v3.3
		c0,0.1-0.1,0.3-0.2,0.3c0,0-0.1,0-0.2,0c-0.1,0-0.2,0-0.3-0.1c-0.3-0.3-0.7-0.5-1.2-0.7c-0.5-0.2-1-0.2-1.5-0.2
		c-0.7,0-1.3,0.1-1.7,0.3c-0.5,0.2-0.8,0.5-1.1,1c-0.2,0.3-0.3,0.6-0.3,0.9c-0.1,0.4-0.1,1-0.1,1.9v6c0,0.2-0.2,0.4-0.4,0.4H31.6z"
		/>
	<path class="st1" d="M39,10.3c0.5,0,0.9,0.1,1.4,0.2c0.4,0.1,0.9,0.3,1.3,0.5v3.3c-0.4-0.3-0.8-0.6-1.3-0.8
		c-0.5-0.2-1.1-0.3-1.7-0.3c-0.7,0-1.4,0.1-1.9,0.4c-0.5,0.3-1,0.6-1.3,1.1c-0.2,0.3-0.3,0.7-0.4,1.1c-0.1,0.4-0.1,1.1-0.1,1.9v6
		h-3.4V10.7H35v2c0.3-0.8,0.9-1.3,1.5-1.7C37.3,10.5,38.1,10.3,39,10.3 M39,9.6c-1.1,0-2,0.2-2.8,0.7c-0.1,0.1-0.3,0.2-0.4,0.3
		c0-0.4-0.4-0.7-0.7-0.7h-3.4c-0.4,0-0.8,0.3-0.8,0.8v13.1c0,0.4,0.3,0.8,0.8,0.8H35c0.4,0,0.8-0.3,0.8-0.8v-6c0-0.8,0-1.4,0.1-1.8
		c0.1-0.3,0.2-0.6,0.3-0.8c0.2-0.4,0.5-0.6,0.9-0.8c0.4-0.2,1-0.3,1.6-0.3c0.5,0,1,0.1,1.4,0.2c0.4,0.1,0.8,0.3,1.1,0.6
		c0.1,0.1,0.3,0.2,0.5,0.2c0.1,0,0.2,0,0.3-0.1c0.3-0.1,0.4-0.4,0.4-0.7V11c0-0.3-0.2-0.5-0.4-0.7c-0.5-0.2-0.9-0.4-1.5-0.6
		C40.1,9.7,39.6,9.6,39,9.6L39,9.6z"/>
</g>
<g>
	<path class="st0" d="M47.3,24.5c-1.6,0-2.8-0.4-3.7-1.3c-0.9-0.9-1.4-2.1-1.4-3.6c0-1.7,0.6-2.9,1.6-3.7c1.1-0.8,2.7-1.2,4.8-1.2h2
		v-0.2c0-0.4-0.1-0.7-0.4-1c-0.3-0.2-0.9-0.4-1.6-0.4c-0.8,0-1.6,0.1-2.3,0.3c-0.7,0.2-1.5,0.5-2.3,1c-0.1,0-0.1,0-0.2,0
		c-0.1,0-0.1,0-0.2-0.1c-0.1-0.1-0.2-0.2-0.2-0.3v-2.9c0-0.2,0.1-0.3,0.2-0.3c0.8-0.3,1.6-0.6,2.4-0.7c0.8-0.2,1.7-0.2,2.6-0.2
		c2.2,0,3.8,0.5,4.8,1.4c0.9,0.9,1.4,2.6,1.4,4.9v7.5c0,0.2-0.2,0.4-0.4,0.4H51c-0.2,0-0.4-0.2-0.4-0.4v-0.5
		c-0.3,0.3-0.7,0.5-1.1,0.7C48.9,24.3,48.1,24.5,47.3,24.5z M49.6,18c-1.5,0-2.2,0.2-2.5,0.4c-0.4,0.3-0.6,0.7-0.6,1.4
		c0,0.5,0.1,0.9,0.4,1.2c0.3,0.3,0.7,0.4,1.2,0.4c0.8,0,1.4-0.3,1.8-0.9c0.4-0.6,0.7-1.4,0.7-2.5H49.6z"/>
	<path class="st1" d="M48.6,10.3c2.1,0,3.6,0.4,4.5,1.3c0.9,0.9,1.3,2.4,1.3,4.7v7.5H51v-1.5c-0.4,0.6-0.9,1-1.6,1.3
		s-1.4,0.5-2.1,0.5c-1.5,0-2.7-0.4-3.5-1.2c-0.8-0.8-1.2-1.9-1.2-3.3c0-1.5,0.5-2.7,1.5-3.4c1-0.7,2.5-1.1,4.6-1.1H51v-0.6
		c0-0.6-0.2-1-0.6-1.3c-0.4-0.3-1-0.4-1.8-0.4c-0.8,0-1.6,0.1-2.4,0.3c-0.8,0.2-1.6,0.5-2.4,1v-2.9c0.8-0.3,1.5-0.5,2.3-0.7
		C46.9,10.4,47.8,10.3,48.6,10.3 M48.2,21.7c0.9,0,1.6-0.3,2.1-1c0.5-0.7,0.8-1.6,0.8-2.9v-0.2h-1.4c-1.3,0-2.2,0.2-2.7,0.5
		c-0.5,0.3-0.8,0.9-0.8,1.7c0,0.6,0.2,1.1,0.5,1.4C47.1,21.6,47.6,21.7,48.2,21.7 M48.6,9.6c-0.9,0-1.8,0.1-2.6,0.2
		c-0.8,0.2-1.7,0.4-2.5,0.7c-0.3,0.1-0.5,0.4-0.5,0.7v2.9c0,0.3,0.1,0.5,0.4,0.6c0.1,0.1,0.3,0.1,0.4,0.1c0.1,0,0.2,0,0.4-0.1
		c0.8-0.4,1.5-0.7,2.2-0.9c0.7-0.2,1.4-0.3,2.2-0.3c0.6,0,1.1,0.1,1.3,0.3c0.1,0.1,0.2,0.2,0.3,0.5h-1.6c-2.3,0-3.9,0.4-5.1,1.2
		c-1.2,0.9-1.8,2.2-1.8,4c0,1.6,0.5,2.9,1.5,3.8c1,0.9,2.3,1.4,4,1.4c0.9,0,1.7-0.2,2.5-0.5c0.2-0.1,0.4-0.2,0.6-0.3
		c0.1,0.3,0.4,0.5,0.7,0.5h3.4c0.4,0,0.8-0.3,0.8-0.8v-7.5c0-2.5-0.5-4.2-1.5-5.2C52.6,10.1,51,9.6,48.6,9.6L48.6,9.6z M48.2,21
		c-0.4,0-0.7-0.1-0.9-0.3c-0.2-0.2-0.3-0.5-0.3-0.9c0-0.7,0.2-0.9,0.4-1.1c0.2-0.1,0.8-0.4,2.3-0.4h0.6c-0.1,0.8-0.3,1.5-0.6,1.9
		C49.3,20.8,48.8,21,48.2,21L48.2,21z"/>
</g>
<g>
	<path class="st0" d="M59.8,24.2c-0.2,0-0.3-0.1-0.4-0.3l-4.2-13.1c0-0.1,0-0.2,0.1-0.3c0.1-0.1,0.2-0.2,0.3-0.2h3.5
		c0.2,0,0.3,0.1,0.4,0.3l2.4,8.9l2.4-8.9c0-0.2,0.2-0.3,0.4-0.3h3.5c0.1,0,0.2,0.1,0.3,0.2c0.1,0.1,0.1,0.2,0.1,0.3l-4.2,13.1
		c0,0.2-0.2,0.3-0.4,0.3H59.8z"/>
	<path class="st1" d="M68.2,10.7L64,23.8h-4.2l-4.2-13.1h3.5l2.8,10.2l2.8-10.2H68.2 M68.2,9.9h-3.5c-0.3,0-0.6,0.2-0.7,0.6
		l-2.1,7.6l-2.1-7.6c-0.1-0.3-0.4-0.6-0.7-0.6h-3.5c-0.2,0-0.5,0.1-0.6,0.3c-0.1,0.2-0.2,0.4-0.1,0.7L59.1,24
		c0.1,0.3,0.4,0.5,0.7,0.5H64c0.3,0,0.6-0.2,0.7-0.5l4.2-13.1c0.1-0.2,0-0.5-0.1-0.7C68.7,10,68.4,9.9,68.2,9.9L68.2,9.9z"/>
</g>
<g>
	<path class="st0" d="M75.8,24.5c-2.3,0-4.1-0.6-5.3-1.9c-1.2-1.2-1.8-3-1.8-5.3c0-2.2,0.6-4,1.8-5.3c1.2-1.3,2.8-2,4.8-2
		c2,0,3.7,0.6,4.8,1.8c1.1,1.2,1.7,2.9,1.7,5.1v1.4c0,0.2-0.2,0.4-0.4,0.4h-8.5c0.1,0.7,0.3,1.3,0.8,1.6c0.5,0.4,1.4,0.7,2.5,0.7
		c0.7,0,1.5-0.1,2.2-0.3c0.7-0.2,1.5-0.6,2.3-1c0.1,0,0.1-0.1,0.2-0.1c0.1,0,0.1,0,0.2,0c0.1,0.1,0.2,0.2,0.2,0.3v3.2
		c0,0.2-0.1,0.3-0.2,0.3c-0.8,0.3-1.7,0.6-2.5,0.8S76.7,24.5,75.8,24.5z M75.3,13.4c-0.7,0-1.2,0.2-1.6,0.6
		c-0.3,0.3-0.6,0.8-0.7,1.4l4.6,0c-0.1-0.6-0.3-1.1-0.6-1.4C76.6,13.6,76,13.4,75.3,13.4z"/>
	<path class="st1" d="M75.3,10.3c1.9,0,3.5,0.6,4.5,1.7s1.6,2.8,1.6,4.9v1.4h-8.9c0,1,0.3,1.8,0.9,2.3c0.6,0.5,1.5,0.8,2.7,0.8
		c0.8,0,1.6-0.1,2.3-0.3c0.8-0.2,1.6-0.6,2.4-1.1v3.2c-0.8,0.3-1.6,0.6-2.4,0.7c-0.8,0.2-1.7,0.2-2.6,0.2c-2.2,0-3.9-0.6-5-1.8
		c-1.2-1.2-1.7-2.9-1.7-5.1c0-2.1,0.6-3.8,1.7-5.1C71.8,11,73.3,10.3,75.3,10.3 M72.5,15.8l5.4,0c0-0.9-0.2-1.6-0.7-2.1
		c-0.4-0.5-1.1-0.7-2-0.7c-0.8,0-1.4,0.2-1.9,0.7C72.9,14.2,72.6,14.9,72.5,15.8 M75.3,9.6c-2.1,0-3.9,0.7-5.1,2.1
		c-1.2,1.4-1.9,3.3-1.9,5.6c0,2.4,0.7,4.3,2,5.6c1.3,1.3,3.2,2,5.6,2c1,0,1.9-0.1,2.8-0.3c0.9-0.2,1.7-0.4,2.6-0.8
		c0.3-0.1,0.5-0.4,0.5-0.7V20c0-0.3-0.1-0.5-0.4-0.7c-0.1-0.1-0.2-0.1-0.4-0.1c-0.1,0-0.3,0-0.4,0.1c-0.8,0.5-1.5,0.8-2.2,1
		c-0.7,0.2-1.4,0.3-2.1,0.3c-1,0-1.8-0.2-2.2-0.6c-0.3-0.2-0.5-0.6-0.6-1h8.1c0.4,0,0.8-0.3,0.8-0.8v-1.4c0-2.3-0.6-4.1-1.8-5.4
		C79.1,10.3,77.4,9.6,75.3,9.6L75.3,9.6z M73.5,15c0.1-0.3,0.3-0.6,0.5-0.8c0.3-0.3,0.8-0.5,1.3-0.5c0.7,0,1.1,0.2,1.4,0.5
		c0.2,0.2,0.3,0.5,0.4,0.8L73.5,15L73.5,15z"/>
</g>
<g>
	<path class="st0" d="M90.3,24.2c-1.7,0-3-0.5-3.8-1.4c-0.8-0.9-1.2-2.4-1.2-4.4V8.6h-3.1c-0.2,0-0.4-0.2-0.4-0.4V5.6
		c0-0.2,0.2-0.4,0.4-0.4h6.9c0.2,0,0.4,0.2,0.4,0.4v12.8c0,1.2,0.2,1.7,0.4,2c0.2,0.3,0.7,0.5,1.3,0.5H94c0.2,0,0.4,0.2,0.4,0.4v2.6
		c0,0.2-0.2,0.4-0.4,0.4H90.3z"/>
	<path class="st1" d="M89.2,5.6v12.8c0,1,0.2,1.8,0.5,2.2c0.3,0.4,0.9,0.6,1.6,0.6H94v2.6h-3.7c-1.6,0-2.8-0.4-3.5-1.3
		c-0.7-0.8-1.1-2.2-1.1-4.2V8.2h-3.5V5.6H89.2 M89.2,4.8h-6.9c-0.4,0-0.8,0.3-0.8,0.8v2.6c0,0.4,0.3,0.8,0.8,0.8H85v9.4
		c0,2.2,0.4,3.7,1.2,4.7c0.9,1,2.2,1.5,4.1,1.5H94c0.4,0,0.8-0.3,0.8-0.8v-2.6c0-0.4-0.3-0.8-0.8-0.8h-2.7c-0.5,0-0.9-0.1-1-0.3
		c-0.1-0.2-0.3-0.6-0.3-1.7V5.6C89.9,5.1,89.6,4.8,89.2,4.8L89.2,4.8z"/>
</g>
<g>
	<path class="st0" d="M99.7,24.2c-0.2,0-0.4-0.2-0.4-0.4v-4.3c0-0.2,0.2-0.4,0.4-0.4h3.9c0.2,0,0.4,0.2,0.4,0.4v4.3
		c0,0.2-0.2,0.4-0.4,0.4H99.7z"/>
	<path class="st1" d="M103.6,19.5v4.3h-3.9v-4.3H103.6 M103.6,18.7h-3.9c-0.4,0-0.8,0.3-0.8,0.8v4.3c0,0.4,0.3,0.8,0.8,0.8h3.9
		c0.4,0,0.8-0.3,0.8-0.8v-4.3C104.4,19.1,104,18.7,103.6,18.7L103.6,18.7z"/>
</g>
<g>
	<path class="st0" d="M116.4,24.5c-0.9,0-1.6-0.2-2.3-0.6c-0.3-0.2-0.6-0.4-0.8-0.7v0.7c0,0.2-0.2,0.4-0.4,0.4h-3.4
		c-0.2,0-0.4-0.2-0.4-0.4V5.6c0-0.2,0.2-0.4,0.4-0.4h3.4c0.2,0,0.4,0.2,0.4,0.4v5.8c0.3-0.3,0.6-0.6,0.9-0.8
		c0.6-0.4,1.3-0.6,2.1-0.6c1.7,0,3,0.7,3.9,1.9c0.9,1.2,1.3,3,1.3,5.3c0,2.3-0.4,4-1.3,5.3C119.3,23.8,118,24.5,116.4,24.5z
		 M115.3,13.6c-0.6,0-1.1,0.3-1.4,0.9c-0.4,0.7-0.6,1.6-0.6,2.8c0,1.2,0.2,2.1,0.6,2.8c0.4,0.6,0.8,0.9,1.4,0.9
		c0.6,0,1.1-0.3,1.4-0.9c0.4-0.7,0.6-1.6,0.6-2.8c0-1.2-0.2-2.1-0.6-2.8C116.3,13.9,115.9,13.6,115.3,13.6z"/>
	<path class="st1" d="M112.9,5.6v7c0.4-0.7,0.9-1.3,1.5-1.6c0.6-0.4,1.2-0.5,1.9-0.5c1.6,0,2.8,0.6,3.6,1.8s1.3,2.9,1.3,5.1
		c0,2.2-0.4,3.9-1.2,5.1c-0.8,1.2-2,1.8-3.5,1.8c-0.8,0-1.5-0.2-2.1-0.6c-0.6-0.4-1.1-1-1.4-1.7v1.9h-3.4V5.6H112.9 M115.3,21.3
		c0.7,0,1.3-0.4,1.7-1.1s0.6-1.7,0.6-3c0-1.3-0.2-2.3-0.6-3s-1-1.1-1.7-1.1s-1.3,0.4-1.8,1.1c-0.4,0.7-0.6,1.7-0.6,3
		c0,1.3,0.2,2.3,0.6,3C113.9,21,114.5,21.3,115.3,21.3 M112.9,4.8h-3.4c-0.4,0-0.8,0.3-0.8,0.8v18.2c0,0.4,0.3,0.8,0.8,0.8h3.4
		c0.3,0,0.6-0.2,0.7-0.6c0.1,0.1,0.2,0.1,0.3,0.2c0.7,0.5,1.5,0.7,2.5,0.7c1.8,0,3.1-0.7,4.1-2.1c0.9-1.3,1.4-3.2,1.4-5.5
		c0-2.4-0.5-4.2-1.4-5.5c-1-1.4-2.4-2.1-4.2-2.1c-0.8,0-1.6,0.2-2.3,0.7c-0.1,0.1-0.2,0.1-0.3,0.2V5.6
		C113.6,5.1,113.3,4.8,112.9,4.8L112.9,4.8z M115.3,20.6c-0.3,0-0.7-0.1-1.1-0.7c-0.4-0.6-0.5-1.5-0.5-2.6s0.2-2,0.5-2.6
		c0.4-0.6,0.8-0.7,1.1-0.7c0.3,0,0.7,0.1,1.1,0.7c0.4,0.6,0.5,1.5,0.5,2.6s-0.2,2-0.5,2.6C116,20.5,115.6,20.6,115.3,20.6
		L115.3,20.6z"/>
</g>
<g>
	<path class="st0" d="M130.1,24.2c-1.7,0-3-0.5-3.8-1.4c-0.8-0.9-1.2-2.4-1.2-4.4V8.6H122c-0.2,0-0.4-0.2-0.4-0.4V5.6
		c0-0.2,0.2-0.4,0.4-0.4h6.9c0.2,0,0.4,0.2,0.4,0.4v12.8c0,1.2,0.2,1.7,0.4,2c0.2,0.3,0.7,0.5,1.3,0.5h2.7c0.2,0,0.4,0.2,0.4,0.4
		v2.6c0,0.2-0.2,0.4-0.4,0.4H130.1z"/>
	<path class="st1" d="M128.9,5.6v12.8c0,1,0.2,1.8,0.5,2.2c0.3,0.4,0.9,0.6,1.6,0.6h2.7v2.6h-3.7c-1.6,0-2.8-0.4-3.5-1.3
		c-0.7-0.8-1.1-2.2-1.1-4.2V8.2H122V5.6H128.9 M128.9,4.8H122c-0.4,0-0.8,0.3-0.8,0.8v2.6c0,0.4,0.3,0.8,0.8,0.8h2.7v9.4
		c0,2.2,0.4,3.7,1.2,4.7c0.9,1,2.2,1.5,4.1,1.5h3.7c0.4,0,0.8-0.3,0.8-0.8v-2.6c0-0.4-0.3-0.8-0.8-0.8H131c-0.5,0-0.9-0.1-1-0.3
		c-0.1-0.2-0.3-0.6-0.3-1.7V5.6C129.7,5.1,129.3,4.8,128.9,4.8L128.9,4.8z"/>
</g>
<g>
	<path class="st0" d="M141.4,24.5c-2,0-3.5-0.7-4.7-2c-1.2-1.3-1.7-3.1-1.7-5.3c0-2.2,0.6-4,1.7-5.3c1.2-1.3,2.7-2,4.7-2
		c2,0,3.5,0.7,4.7,2c1.2,1.3,1.7,3.1,1.7,5.3c0,2.2-0.6,4-1.7,5.3C145,23.8,143.4,24.5,141.4,24.5z M141.4,13.5
		c-0.7,0-1.2,0.3-1.6,0.9c-0.4,0.7-0.6,1.6-0.6,2.8c0,1.2,0.2,2.2,0.6,2.8c0.4,0.6,0.9,0.9,1.6,0.9c0.7,0,1.2-0.3,1.6-0.9
		c0.4-0.7,0.6-1.6,0.6-2.8c0-1.2-0.2-2.2-0.6-2.8C142.6,13.8,142.1,13.5,141.4,13.5z"/>
	<path class="st1" d="M141.4,10.3c1.9,0,3.3,0.6,4.4,1.9c1.1,1.2,1.6,2.9,1.6,5s-0.5,3.8-1.6,5c-1.1,1.2-2.6,1.9-4.4,1.9
		c-1.9,0-3.3-0.6-4.4-1.9c-1.1-1.2-1.6-2.9-1.6-5s0.5-3.8,1.6-5C138.1,11,139.6,10.3,141.4,10.3 M141.4,21.3c0.8,0,1.5-0.4,1.9-1.1
		c0.5-0.7,0.7-1.7,0.7-3s-0.2-2.3-0.7-3c-0.5-0.7-1.1-1.1-1.9-1.1c-0.8,0-1.5,0.4-1.9,1.1c-0.5,0.7-0.7,1.7-0.7,3s0.2,2.3,0.7,3
		C139.9,21,140.6,21.3,141.4,21.3 M141.4,9.6c-2.1,0-3.7,0.7-5,2.1c-1.2,1.4-1.8,3.2-1.8,5.5s0.6,4.2,1.8,5.5c1.2,1.4,2.9,2.1,5,2.1
		c2.1,0,3.8-0.7,5-2.1c1.2-1.4,1.8-3.2,1.8-5.5s-0.6-4.2-1.8-5.5C145.2,10.3,143.5,9.6,141.4,9.6L141.4,9.6z M141.4,20.6
		c-0.6,0-1-0.2-1.3-0.7c-0.4-0.6-0.6-1.5-0.6-2.6s0.2-2,0.6-2.6c0.3-0.5,0.7-0.7,1.3-0.7c0.6,0,1,0.2,1.3,0.7
		c0.4,0.6,0.6,1.5,0.6,2.6s-0.2,2-0.6,2.6C142.4,20.4,142,20.6,141.4,20.6L141.4,20.6z"/>
</g>
<g>
	<path class="st0" d="M154.2,29.1c-0.7,0-1.5-0.1-2.2-0.2s-1.5-0.3-2.2-0.5c-0.2,0-0.3-0.2-0.3-0.4V25c0-0.1,0.1-0.3,0.2-0.3
		c0.1,0,0.1-0.1,0.2-0.1c0.1,0,0.1,0,0.2,0c0.6,0.3,1.3,0.6,1.9,0.8c0.6,0.2,1.3,0.2,2,0.2c0.9,0,1.5-0.2,1.9-0.6
		c0.4-0.4,0.6-1,0.6-1.9v-0.3c-0.2,0.2-0.5,0.4-0.8,0.6c-0.6,0.3-1.4,0.5-2.2,0.5c-1.6,0-2.9-0.6-3.9-1.9c-0.9-1.2-1.4-2.9-1.4-5
		c0-2.1,0.5-3.9,1.4-5.2c1-1.3,2.2-2,3.9-2c0.8,0,1.6,0.2,2.2,0.6c0.3,0.2,0.6,0.4,0.8,0.6v-0.5c0-0.2,0.2-0.4,0.4-0.4h3.4
		c0.2,0,0.4,0.2,0.4,0.4v12.1c0,2.2-0.5,3.8-1.5,4.8C158.1,28.6,156.5,29.1,154.2,29.1z M154.4,13.5c-0.6,0-1.1,0.3-1.4,0.9
		c-0.4,0.6-0.6,1.5-0.6,2.6c0,1.1,0.2,2,0.6,2.6c0.4,0.6,0.8,0.9,1.4,0.9c0.6,0,1.1-0.3,1.4-0.9c0.4-0.6,0.6-1.5,0.6-2.6
		c0-1.1-0.2-2-0.6-2.6C155.5,13.8,155,13.5,154.4,13.5z"/>
	<path class="st1" d="M153.5,10.3c0.8,0,1.4,0.2,2,0.5c0.6,0.4,1,0.8,1.4,1.5v-1.7h3.4v12.1c0,2.1-0.5,3.6-1.4,4.6
		c-0.9,0.9-2.5,1.4-4.6,1.4c-0.7,0-1.4-0.1-2.1-0.2s-1.4-0.3-2.1-0.5V25c0.6,0.4,1.3,0.6,2,0.8c0.7,0.2,1.4,0.3,2.1,0.3
		c1,0,1.7-0.2,2.1-0.7c0.5-0.5,0.7-1.2,0.7-2.1v-1.4c-0.3,0.6-0.8,1.1-1.3,1.4c-0.6,0.3-1.2,0.5-2,0.5c-1.5,0-2.7-0.6-3.6-1.8
		c-0.9-1.2-1.3-2.8-1.3-4.8c0-2.1,0.4-3.7,1.3-4.9S152,10.3,153.5,10.3 M154.4,20.9c0.7,0,1.3-0.4,1.8-1.1c0.4-0.7,0.7-1.7,0.7-2.8
		c0-1.2-0.2-2.1-0.7-2.8s-1-1.1-1.8-1.1c-0.7,0-1.3,0.4-1.7,1.1c-0.4,0.7-0.7,1.6-0.7,2.8c0,1.2,0.2,2.1,0.7,2.8
		C153.1,20.6,153.7,20.9,154.4,20.9 M153.5,9.6c-1.7,0-3.1,0.7-4.2,2.1c-1,1.3-1.5,3.2-1.5,5.4c0,2.2,0.5,3.9,1.5,5.2
		c1,1.4,2.4,2.1,4.2,2.1c0.9,0,1.7-0.2,2.4-0.5c0.1,0,0.1-0.1,0.2-0.1c-0.1,0.5-0.2,0.9-0.4,1.1c-0.3,0.3-0.9,0.5-1.6,0.5
		c-0.6,0-1.3-0.1-1.9-0.2c-0.6-0.2-1.2-0.4-1.8-0.7c-0.1-0.1-0.2-0.1-0.4-0.1c-0.1,0-0.3,0-0.4,0.1c-0.2,0.1-0.4,0.4-0.4,0.6v3.2
		c0,0.3,0.2,0.6,0.5,0.7c0.8,0.2,1.5,0.4,2.2,0.5c0.7,0.1,1.5,0.2,2.2,0.2c2.3,0,4.1-0.5,5.1-1.6c1.1-1.1,1.6-2.8,1.6-5.1V10.7
		c0-0.4-0.3-0.8-0.8-0.8h-3.4c-0.3,0-0.6,0.2-0.7,0.5c-0.1-0.1-0.2-0.1-0.3-0.2C155.2,9.8,154.3,9.6,153.5,9.6L153.5,9.6z
		 M154.4,20.2c-0.3,0-0.7-0.1-1.1-0.7c-0.4-0.6-0.5-1.4-0.5-2.4c0-1,0.2-1.8,0.5-2.4c0.4-0.6,0.8-0.7,1.1-0.7c0.3,0,0.7,0.1,1.1,0.7
		c0.4,0.6,0.6,1.4,0.6,2.4c0,1-0.2,1.8-0.6,2.4C155.1,20.1,154.7,20.2,154.4,20.2L154.4,20.2z"/>
</g>
</svg>
