<?xml version="1.0" encoding="utf-8"?>
<!-- Generator: Adobe Illustrator 21.0.0, SVG Export Plug-In . SVG Version: 6.00 Build 0)  -->
<svg version="1.1" id="Layer_1" xmlns="http://www.w3.org/2000/svg" xmlns:xlink="http://www.w3.org/1999/xlink" x="0px" y="0px"
	 viewBox="0 0 164.8 32.3" style="enable-background:new 0 0 164.8 32.3;" xml:space="preserve">
<style type="text/css">
	.st0{fill:#EAE1D7;}
</style>
<path class="st0" d="M5.3,23.8V6.3h3.5v14.4h7.4v3H5.3z"/>
<path class="st0" d="M28.9,16.3v7.5h-3.4v-1.5c-0.4,0.6-0.9,1-1.6,1.3s-1.4,0.5-2.1,0.5c-1.5,0-2.7-0.4-3.5-1.2S17,21.1,17,19.6
	c0-1.5,0.5-2.7,1.5-3.4s2.5-1.1,4.6-1.1h2.4v-0.6c0-0.6-0.2-1-0.6-1.3s-1-0.4-1.8-0.4c-0.8,0-1.6,0.1-2.4,0.3s-1.6,0.5-2.4,1v-2.9
	c0.8-0.3,1.5-0.5,2.3-0.7s1.6-0.2,2.5-0.2c2.1,0,3.6,0.4,4.5,1.3S28.9,14.1,28.9,16.3z M24.1,17.6c-1.3,0-2.2,0.2-2.7,0.5
	s-0.8,0.9-0.8,1.7c0,0.6,0.2,1.1,0.5,1.4s0.8,0.5,1.4,0.5c0.9,0,1.6-0.3,2.1-1s0.8-1.6,0.8-2.9v-0.2H24.1z"/>
<path class="st0" d="M41.7,14.3c-0.4-0.3-0.8-0.6-1.3-0.8s-1.1-0.3-1.7-0.3c-0.7,0-1.4,0.1-1.9,0.4s-1,0.6-1.3,1.1
	c-0.2,0.3-0.3,0.7-0.4,1.1S35,16.9,35,17.7v6h-3.4V10.7H35v2c0.3-0.8,0.9-1.3,1.5-1.7s1.5-0.6,2.4-0.6c0.5,0,0.9,0.1,1.4,0.2
	s0.9,0.3,1.3,0.5V14.3z"/>
<path class="st0" d="M54.4,16.3v7.5H51v-1.5c-0.4,0.6-0.9,1-1.6,1.3s-1.4,0.5-2.1,0.5c-1.5,0-2.7-0.4-3.5-1.2s-1.2-1.9-1.2-3.3
	c0-1.5,0.5-2.7,1.5-3.4s2.5-1.1,4.6-1.1H51v-0.6c0-0.6-0.2-1-0.6-1.3s-1-0.4-1.8-0.4c-0.8,0-1.6,0.1-2.4,0.3s-1.6,0.5-2.4,1v-2.9
	c0.8-0.3,1.5-0.5,2.3-0.7s1.6-0.2,2.5-0.2c2.1,0,3.6,0.4,4.5,1.3S54.4,14.1,54.4,16.3z M49.6,17.6c-1.3,0-2.2,0.2-2.7,0.5
	s-0.8,0.9-0.8,1.7c0,0.6,0.2,1.1,0.5,1.4s0.8,0.5,1.4,0.5c0.9,0,1.6-0.3,2.1-1s0.8-1.6,0.8-2.9v-0.2H49.6z"/>
<path class="st0" d="M68.2,10.7L64,23.8h-4.2l-4.2-13.1h3.5l2.8,10.2l2.8-10.2H68.2z"/>
<path class="st0" d="M80.9,23.1c-0.8,0.3-1.6,0.6-2.4,0.7s-1.7,0.2-2.6,0.2c-2.2,0-3.9-0.6-5-1.8S69,19.5,69,17.3
	c0-2.1,0.6-3.8,1.7-5.1s2.6-1.9,4.6-1.9c1.9,0,3.5,0.6,4.5,1.7s1.6,2.8,1.6,4.9v1.4h-8.9c0,1,0.3,1.8,0.9,2.3s1.5,0.8,2.7,0.8
	c0.8,0,1.6-0.1,2.3-0.3s1.6-0.6,2.4-1.1V23.1z M78,15.8c0-0.9-0.2-1.6-0.7-2.1s-1.1-0.7-2-0.7c-0.8,0-1.4,0.2-1.9,0.7
	s-0.7,1.2-0.8,2L78,15.8z"/>
<path class="st0" d="M85.7,18.3V8.2h-3.5V5.6h6.9v12.8c0,1,0.2,1.8,0.5,2.2s0.9,0.6,1.6,0.6H94v2.6h-3.7c-1.6,0-2.8-0.4-3.5-1.3
	S85.7,20.3,85.7,18.3z"/>
<path class="st0" d="M99.7,19.5h3.9v4.3h-3.9V19.5z"/>
<path class="st0" d="M112.9,12.5c0.4-0.7,0.9-1.3,1.5-1.6s1.2-0.5,1.9-0.5c1.6,0,2.8,0.6,3.6,1.8s1.3,2.9,1.3,5.1
	c0,2.2-0.4,3.9-1.2,5.1s-2,1.8-3.5,1.8c-0.8,0-1.5-0.2-2.1-0.6s-1.1-1-1.4-1.7v1.9h-3.4V5.6h3.4V12.5z M117.7,17.3
	c0-1.3-0.2-2.3-0.6-3s-1-1.1-1.7-1.1s-1.3,0.4-1.8,1.1s-0.6,1.7-0.6,3s0.2,2.3,0.6,3s1,1.1,1.8,1.1s1.3-0.4,1.7-1.1
	S117.7,18.5,117.7,17.3z"/>
<path class="st0" d="M125.5,18.3V8.2H122V5.6h6.9v12.8c0,1,0.2,1.8,0.5,2.2s0.9,0.6,1.6,0.6h2.7v2.6h-3.7c-1.6,0-2.8-0.4-3.5-1.3
	S125.5,20.3,125.5,18.3z"/>
<path class="st0" d="M135.3,17.2c0-2.1,0.5-3.8,1.6-5s2.6-1.9,4.4-1.9c1.9,0,3.3,0.6,4.4,1.9s1.6,2.9,1.6,5s-0.5,3.8-1.6,5
	s-2.6,1.9-4.4,1.9c-1.9,0-3.3-0.6-4.4-1.9S135.3,19.4,135.3,17.2z M141.4,13.1c-0.8,0-1.5,0.4-1.9,1.1s-0.7,1.7-0.7,3s0.2,2.3,0.7,3
	s1.1,1.1,1.9,1.1c0.8,0,1.5-0.4,1.9-1.1s0.7-1.7,0.7-3s-0.2-2.3-0.7-3S142.2,13.1,141.4,13.1z"/>
<path class="st0" d="M160.3,22.8c0,2.1-0.5,3.6-1.4,4.6s-2.5,1.4-4.6,1.4c-0.7,0-1.4-0.1-2.1-0.2s-1.4-0.3-2.1-0.5V25
	c0.6,0.4,1.3,0.6,2,0.8s1.4,0.3,2.1,0.3c1,0,1.7-0.2,2.1-0.7s0.7-1.2,0.7-2.1v-1.4c-0.3,0.6-0.8,1.1-1.3,1.4s-1.2,0.5-2,0.5
	c-1.5,0-2.7-0.6-3.6-1.8s-1.3-2.8-1.3-4.8c0-2.1,0.4-3.7,1.3-4.9s2.1-1.8,3.6-1.8c0.8,0,1.4,0.2,2,0.5s1,0.8,1.4,1.5v-1.7h3.4V22.8z
	 M156.8,17c0-1.2-0.2-2.1-0.7-2.8s-1-1.1-1.8-1.1c-0.7,0-1.3,0.4-1.7,1.1S152,15.8,152,17c0,1.2,0.2,2.1,0.7,2.8s1,1.1,1.7,1.1
	c0.7,0,1.3-0.4,1.8-1.1S156.8,18.2,156.8,17z"/>
</svg>
