<?xml version="1.0" encoding="utf-8"?>
<!-- Generator: Adobe Illustrator 21.0.0, SVG Export Plug-In . SVG Version: 6.00 Build 0)  -->
<svg version="1.1" id="Layer_1" xmlns="http://www.w3.org/2000/svg" xmlns:xlink="http://www.w3.org/1999/xlink" x="0px" y="0px"
	 viewBox="0 0 150 150" style="enable-background:new 0 0 150 150;" xml:space="preserve">
<style type="text/css">
	.st0{fill:url(#SVGID_1_);stroke:#FFFFFF;stroke-miterlimit:10;}
	.st1{fill:#FFFFFF;}
</style>
<linearGradient id="SVGID_1_" gradientUnits="userSpaceOnUse" x1="75" y1="150" x2="75" y2="-9.094947e-13">
	<stop  offset="0" style="stop-color:#A6A6A6"/>
	<stop  offset="1" style="stop-color:#666666"/>
</linearGradient>
<rect x="0" class="st0" width="150" height="150"/>
<g>
	<path class="st1" d="M66.3,65.3c-4.3,0-5.2,0.9-5.2,8.7v2c0,7.8,0.7,8.7,5.2,8.7c4.3,0,5.3-0.9,5.3-8.7v-2
		C71.6,66.2,70.9,65.3,66.3,65.3z"/>
	<path class="st1" d="M87.3,65.3C83,65.3,82,66.2,82,74v2c0,7.8,0.7,8.7,5.2,8.7c4.3,0,5.3-0.9,5.3-8.7v-2
		C92.5,66.2,91.8,65.3,87.3,65.3z"/>
	<path class="st1" d="M75,21.3c-29.6,0-53.7,24-53.7,53.7c0,29.6,24,53.7,53.7,53.7s53.7-24,53.7-53.7
		C128.7,45.4,104.6,21.3,75,21.3z M53.3,86.1c0,0.9-0.3,1.1-1.6,1.1c-1.3,0-1.6-0.2-1.6-1.1c0-6.2,0-12.9,0-19.1h-0.3l-4.7,12.5
		c-0.4,1-0.8,1.2-2,1.2c-1.2,0-1.6-0.2-2-1.2l-4.6-12.5h-0.3c0,6.2,0,12.9,0,19.1c0,0.9-0.3,1.1-1.6,1.1S33,87,33,86.1V63.8
		c0-0.9,0.3-1.2,2.5-1.2c1.8,0,2.4,0.1,2.9,1.4l4.6,12.6h0.2L47.9,64c0.5-1.3,1.1-1.4,3-1.4c2.2,0,2.4,0.3,2.4,1.2V86.1z M74.9,76.2
		c0,10.5-2.7,11.4-8.6,11.4c-6.4,0-8.6-1.2-8.6-11.4v-2.3c0-10.6,2.6-11.5,8.6-11.5c6.5,0,8.6,1.2,8.6,11.5V76.2z M95.8,76.2
		c0,10.5-2.7,11.4-8.6,11.4c-6.4,0-8.6-1.2-8.6-11.4v-2.3c0-10.6,2.6-11.5,8.6-11.5c6.5,0,8.6,1.2,8.6,11.5V76.2z M114.7,87.2
		c-1.6,0-2-0.1-2.5-1l-8.3-18.5h-0.4v18.5c0,0.9-0.3,1.1-1.6,1.1c-1.3,0-1.6-0.2-1.6-1.1V63.7c0-0.8,0.4-1,2.4-1c1.6,0,2.2,0,2.6,1
		l8.1,18.5h0.4V63.7c0-0.8,0.3-1,1.6-1c1.3,0,1.6,0.2,1.6,1v22.5C117,87,116.7,87.2,114.7,87.2z"/>
</g>
</svg>
